<svg width="450" height="393" xmlns="http://www.w3.org/2000/svg" xmlns:xlink="http://www.w3.org/1999/xlink" overflow="hidden"><defs><clipPath id="clip0"><path d="M56 56 506 56 506 449 56 449Z" fill-rule="evenodd" clip-rule="evenodd"/></clipPath></defs><g clip-path="url(#clip0)" transform="translate(-56 -56)"><path d="M437.045 81.0245C508.93 158.451 525.046 272.555 477.426 366.926L252.518 253Z" stroke="#000000" stroke-width="1.33333" stroke-miterlimit="8" fill="#ED7D31" fill-rule="evenodd"/><path d="M425.41 340.812C406.41 378.314 375.823 408.651 338.215 427.296L252 252.5Z" stroke="#000000" stroke-width="1.33333" stroke-miterlimit="8" fill="#FFD966" fill-rule="evenodd"/><path d="M444.866 227.278C449.939 266.268 443.136 305.886 425.35 340.931L252 252.5Z" stroke="#000000" stroke-width="1.33333" stroke-miterlimit="8" fill="#FFD966" fill-rule="evenodd"/><path d="M394.302 119.568C421.968 149.337 439.653 187.035 444.88 227.384L252 252.5Z" stroke="#000000" stroke-width="1.33333" stroke-miterlimit="8" fill="#FFD966" fill-rule="evenodd"/><path d="M338.004 427.401C298.538 446.907 253.641 452.421 210.646 443.041L252 252.5Z" stroke="#000000" stroke-width="1.33333" stroke-miterlimit="8" fill="#FFD966" fill-rule="evenodd"/><path d="M210.532 443.017C169.928 434.133 133.23 412.444 105.816 381.128L252 252.5Z" stroke="#000000" stroke-width="1.33333" stroke-miterlimit="8" fill="#FFD966" fill-rule="evenodd"/><path d="M105.317 380.556C35.3414 299.989 43.0536 177.972 122.613 106.905L252 252.5Z" stroke="#000000" stroke-width="1.33333" stroke-miterlimit="8" fill="#A9D18E" fill-rule="evenodd"/><path d="M122.906 106.644C201.977 36.3005 322.61 42.1525 394.537 119.821L252 252.5Z" stroke="#000000" stroke-width="1.33333" stroke-miterlimit="8" fill="#A9D18E" fill-rule="evenodd"/><text fill="#FFFFFF" font-family="Sarasa Mono Slab SC,Sarasa Mono Slab SC_MSFontService,sans-serif" font-weight="400" font-size="15" transform="translate(248.083 129)">v</text><path d="M156.075 336.68C109.584 283.426 115.066 202.566 168.32 156.075 220.377 110.629 299.108 114.707 346.191 165.288L252.5 252.5Z" stroke="#000000" stroke-width="1.33333" stroke-miterlimit="8" fill="#548235" fill-rule="evenodd"/><text fill="#FFFFFF" font-family="Sarasa Mono Slab SC,Sarasa Mono Slab SC_MSFontService,sans-serif" font-weight="400" font-size="15" transform="translate(165.05 176)">软件</text><path d="M346.446 165.563C394.46 217.448 391.322 298.432 339.437 346.446 287.552 394.461 206.568 391.323 158.554 339.437 157.827 338.652 157.111 337.858 156.404 337.055L252.5 252.5Z" stroke="#000000" stroke-width="1.33333" stroke-miterlimit="8" fill="#BF9000" fill-rule="evenodd"/><text fill="#FFFFFF" font-family="Sarasa Mono Slab SC,Sarasa Mono Slab SC_MSFontService,sans-serif" font-weight="400" font-size="15" transform="translate(309.437 340)">硬件</text><path d="M180.5 253C180.5 213.512 212.512 181.5 252 181.5 291.488 181.5 323.5 213.512 323.5 253 323.5 292.488 291.488 324.5 252 324.5 212.512 324.5 180.5 292.488 180.5 253Z" stroke="#000000" stroke-width="1.33333" stroke-miterlimit="8" fill="#7030A0" fill-rule="evenodd"/><text fill="#FFFFFF" font-family="Sarasa Mono Slab SC,Sarasa Mono Slab SC_MSFontService,sans-serif" font-weight="400" font-size="15" transform="translate(215.5 258)">计算机系统<tspan fill="#000000" x="7.25008" y="-161">系统软件</tspan></text><text font-family="Sarasa Mono Slab SC,Sarasa Mono Slab SC_MSFontService,sans-serif" font-weight="400" font-size="15" writing-mode="tb-rl" transform="matrix(1 -4.37114e-08 4.37114e-08 1 92.3899 204)" x="5.2875" y="2.22">应用软件</text><text font-family="Sarasa Mono Slab SC,Sarasa Mono Slab SC_MSFontService,sans-serif" font-weight="400" font-size="15" transform="matrix(-0.425692 -0.904868 0.904868 -0.425692 404.748 207)">运算<tspan x="17.4494" y="16.9386">器</tspan></text><text font-family="Sarasa Mono Slab SC,Sarasa Mono Slab SC_MSFontService,sans-serif" font-weight="400" font-size="15" transform="matrix(0.231182 -0.972911 0.972911 0.231182 404.041 294)">控制<tspan x="7.12966" y="17.0278">器</tspan></text><text font-family="Sarasa Mono Slab SC,Sarasa Mono Slab SC_MSFontService,sans-serif" font-weight="400" font-size="15" transform="matrix(0.712205 -0.701971 0.701971 0.712205 356.703 375)">存储<tspan x="7.26107" y="16.9854">器</tspan></text><text font-family="Sarasa Mono Slab SC,Sarasa Mono Slab SC_MSFontService,sans-serif" font-weight="400" font-size="15" transform="matrix(0.877513 0.479553 -0.479553 0.877513 158.207 384)">输入<tspan x="0.0394592" y="17.0722">设备</tspan></text><text font-family="Sarasa Mono Slab SC,Sarasa Mono Slab SC_MSFontService,sans-serif" font-weight="400" font-size="15" transform="matrix(0.993861 -0.110637 0.110637 0.993861 258.37 412)">输出<tspan x="0.0990866" y="16.1099">设备</tspan></text><text font-family="Sarasa Mono Slab SC,Sarasa Mono Slab SC_MSFontService,sans-serif" font-weight="400" font-size="15" transform="matrix(-0.151038 -0.988528 0.988528 -0.151038 476.859 246)">The CPU</text></g></svg>